<?xml version="1.0" encoding="UTF-8" standalone="no"?>
<svg width="118px" height="260px" viewBox="0 0 118 260" version="1.1" xmlns="http://www.w3.org/2000/svg" xmlns:xlink="http://www.w3.org/1999/xlink">
    <!-- Generator: Sketch 3.8.3 (29802) - http://www.bohemiancoding.com/sketch -->
    <title>mouse_move_up</title>
    <desc>Created with Sketch.</desc>
    <defs>
        <path d="M118,123.003111 C118,105.88309 104.119434,92 86.9968891,92 L31.0031109,92 C13.88309,92 0,105.880566 0,123.003111 L0,201 C0,233.5848 26.4151998,260 59,260 C91.5848002,260 118,233.5848 118,201 L118,123.003111 Z" id="path-1"></path>
        <rect id="path-3" x="49" y="92" width="20" height="52.4444444"></rect>
        <mask id="mask-4" maskContentUnits="userSpaceOnUse" maskUnits="objectBoundingBox" x="-5" y="-5" width="30" height="62.4444444">
            <rect x="44" y="87" width="30" height="62.4444444" fill="white"></rect>
            <use xlink:href="#path-3" fill="black"></use>
        </mask>
    </defs>
    <g id="Page-1" stroke="none" stroke-width="1" fill="none" fill-rule="evenodd">
        <g id="mouse_move_up">
            <mask id="mask-2" fill="white">
                <use xlink:href="#path-1"></use>
            </mask>
            <use id="Mask" fill="#000000" opacity="0" xlink:href="#path-1"></use>
            <g id="Rectangle-1" mask="url(#mask-2)" stroke-width="10" stroke="#000000">
                <use mask="url(#mask-4)" xlink:href="#path-3"></use>
            </g>
            <rect id="Rectangle-1-Copy" fill="#FF0000" opacity="0" mask="url(#mask-2)" x="0" y="92.0827394" width="46.2222222" height="61.0916121"></rect>
            <rect id="Rectangle-1-Copy" fill="#FF0000" opacity="0" mask="url(#mask-2)" x="72" y="92.0827394" width="46.2222222" height="61.0916121"></rect>
            <rect id="Rectangle-2" fill="#000000" mask="url(#mask-2)" x="0" y="144.444444" width="118" height="8"></rect>
            <path d="M108,201 C108,228.061953 86.0619527,250 59,250 C31.9380473,250 10,228.061953 10,201 L10,123.003111 C10,111.404411 19.4049397,102 31.0031109,102 L86.9968891,102 C98.5955892,102 108,111.40494 108,123.003111 L108,201 Z M118,123.003111 C118,105.88309 104.119434,92 86.9968891,92 L31.0031109,92 C13.88309,92 0,105.880566 0,123.003111 L0,201 C0,233.5848 26.4151998,260 59,260 C91.5848002,260 118,233.5848 118,201 L118,123.003111 Z" id="Combined-Shape" fill="#000000" mask="url(#mask-2)"></path>
            <polygon id="Triangle-1" fill="#000000" transform="translate(59.000000, 36.000000) rotate(-90.000000) translate(-59.000000, -36.000000) " points="23 72 23 0 95 36"></polygon>
        </g>
    </g>
</svg>